HIERARCHY
ROOT Hips
{
  OFFSET -4.35178 90.3298 111.633
  CHANNELS 6 Xposition Yposition Zposition Zrotation Xrotation Yrotation
  JOINT LeftUpLeg
  {
    OFFSET 0.103456 1.85784 10.5485
    CHANNELS 6 Xposition Yposition Zposition Zrotation Xrotation Yrotation
    JOINT LeftLeg
    {
      OFFSET 43.5 -4.2e-05 0
      CHANNELS 6 Xposition Yposition Zposition Zrotation Xrotation Yrotation
      JOINT LeftFoot
      {
        OFFSET 42.3722 1.9e-05 0
        CHANNELS 6 Xposition Yposition Zposition Zrotation Xrotation Yrotation
        JOINT LeftToe
        {
          OFFSET 17.3 0 0
          CHANNELS 6 Xposition Yposition Zposition Zrotation Xrotation Yrotation
          End Site
          {
            OFFSET 0 0 0
          }
        }
      }
    }
  }
  JOINT RightUpLeg
  {
    OFFSET 0.103456 1.85782 -10.5485
    CHANNELS 6 Xposition Yposition Zposition Zrotation Xrotation Yrotation
    JOINT RightLeg
    {
      OFFSET 43.5 -2.7e-05 0
      CHANNELS 6 Xposition Yposition Zposition Zrotation Xrotation Yrotation
      JOINT RightFoot
      {
        OFFSET 42.3723 0 0
        CHANNELS 6 Xposition Yposition Zposition Zrotation Xrotation Yrotation
        JOINT RightToe
        {
          OFFSET 17.3 0 1.7e-05
          CHANNELS 6 Xposition Yposition Zposition Zrotation Xrotation Yrotation
          End Site
          {
            OFFSET 0 0 0
          }
        }
      }
    }
  }
  JOINT Spine
  {
    OFFSET 6.90197 -2.60373 0
    CHANNELS 6 Xposition Yposition Zposition Zrotation Xrotation Yrotation
    JOINT Spine1
    {
      OFFSET 12.5881 0 0
      CHANNELS 6 Xposition Yposition Zposition Zrotation Xrotation Yrotation
      JOINT Spine2
      {
        OFFSET 12.3432 -1.8e-05 0
        CHANNELS 6 Xposition Yposition Zposition Zrotation Xrotation Yrotation
        JOINT Neck
        {
          OFFSET 25.8329 2.3e-05 0
          CHANNELS 6 Xposition Yposition Zposition Zrotation Xrotation Yrotation
          JOINT Head
          {
            OFFSET 11.7666 0 0
            CHANNELS 6 Xposition Yposition Zposition Zrotation Xrotation Yrotation
            End Site
            {
              OFFSET 0 0 0
            }
          }
        }
        JOINT LeftShoulder
        {
          OFFSET 19.7459 -1.48035 6.0001
          CHANNELS 6 Xposition Yposition Zposition Zrotation Xrotation Yrotation
          JOINT LeftArm
          {
            OFFSET 11.2841 1.8e-05 -2e-05
            CHANNELS 6 Xposition Yposition Zposition Zrotation Xrotation Yrotation
            JOINT LeftForeArm
            {
              OFFSET 33 -1.3e-05 1.9e-05
              CHANNELS 6 Xposition Yposition Zposition Zrotation Xrotation Yrotation
              JOINT LeftHand
              {
                OFFSET 25.2 3.2e-05 1.1e-05
                CHANNELS 6 Xposition Yposition Zposition Zrotation Xrotation Yrotation
                End Site
                {
                  OFFSET 0 0 0
                }
              }
            }
          }
        }
        JOINT RightShoulder
        {
          OFFSET 19.7461 -1.48036 -6.00008
          CHANNELS 6 Xposition Yposition Zposition Zrotation Xrotation Yrotation
          JOINT RightArm
          {
            OFFSET 11.2841 0 0
            CHANNELS 6 Xposition Yposition Zposition Zrotation Xrotation Yrotation
            JOINT RightForeArm
            {
              OFFSET 33.0001 1.6e-05 0
              CHANNELS 6 Xposition Yposition Zposition Zrotation Xrotation Yrotation
              JOINT RightHand
              {
                OFFSET 25.1998 0.000123 0.000432
                CHANNELS 6 Xposition Yposition Zposition Zrotation Xrotation Yrotation
                End Site
                {
                  OFFSET 0 0 0
                }
              }
            }
          }
        }
      }
    }
  }
}
MOTION
Frames:	11
Frame Time:	0.0333333
-56.46 86.1099 -87.6725 -80.1479 -16.3744 -174.285 0.103456 1.85784 10.5485 -10.5816 18.2152 160.45 43.5 -4.2e-05 1e-05 -16.9731 -6.86866 -0.996185 42.3722 1.9e-05 0 70.6306 12.7391 -11.5285 17.3 0 3e-06 21.4546 -1e-06 0.003093 0.103456 1.85782 -10.5485 10.8194 -23.3597 177.372 43.5 -2.7e-05 4e-06 -36.0637 15.324 3.27598 42.3723 0 1e-05 97.5563 6.42558 -8.5587 17.3 -6e-06 1.7e-05 21.4546 -1.9e-05 -0.003116 6.90197 -2.60373 -3e-06 9.60431 4.87522 -0.122944 12.5881 1e-05 8e-06 9.17859 9.7982 -1.09972 12.3432 -1.8e-05 -5e-06 8.76613 9.84721 -1.68187 25.8329 2.3e-05 7e-06 11.44 20.4421 -23.508 11.7666 -8e-06 -6e-06 -0.00735918 31.8033 7.69399 19.7459 -1.48035 6.0001 -174.311 6.26413 -85.7483 11.2841 1.8e-05 -2e-05 -20.4331 -2.15487 68.1442 33 -1.3e-05 1.9e-05 -30.39 8.8026 -5.46861 25.2 3.2e-05 1.1e-05 -17.618 24.977 8.43011 19.7461 -1.48036 -6.00008 -178.815 6.58373 66.6175 11.2841 -1.42109e-14 -1e-06 -18.5851 -5.06772 -34.7876 33.0001 1.6e-05 -1e-06 -49.6684 -0.861871 16.2421 25.1998 0.000123 0.000432 3.39845 -20.5269 14.1927 
-59.0386 87.5713 -89.4352 -80.6955 -16.8352 -174.36 0.103456 1.85784 10.5485 -13.5389 17.8645 163.555 43.5 -4.2e-05 1e-05 -26.3415 -7.85172 -0.319323 42.3722 1.9e-05 0 70.6268 9.31834 -2.59868 17.3 0 3e-06 21.4546 -1e-06 0.003093 0.103456 1.85782 -10.5485 9.70543 -22.892 176.549 43.5 -2.7e-05 4e-06 -32.6087 14.8905 2.73643 42.3723 0 1e-05 94.8659 6.34155 -9.52287 17.3 -6e-06 1.7e-05 21.4546 -1.9e-05 -0.003116 6.90197 -2.60373 -3e-06 9.63582 4.80549 -0.0880662 12.5881 1e-05 8e-06 9.23785 9.66604 -1.01975 12.3432 -1.8e-05 -5e-06 8.82585 9.72115 -1.59392 25.8329 2.3e-05 7e-06 10.9916 20.263 -23.1582 11.7666 -8e-06 -6e-06 -0.480288 31.0694 7.97395 19.7459 -1.48035 6.0001 -174.98 5.74115 -86.251 11.2841 1.8e-05 -2e-05 -21.0483 -2.3081 67.8725 33 -1.3e-05 1.9e-05 -31.1874 8.37729 -4.75473 25.2 3.2e-05 1.1e-05 -17.178 24.7476 8.76245 19.7461 -1.48036 -6.00008 -177.318 5.6701 64.8503 11.2841 1.42109e-14 -1e-06 -15.8084 -4.51299 -35.4486 33.0001 1.6e-05 -1e-06 -45.2864 1.27164 15.5881 25.1998 0.000123 0.000432 4.91848 -18.7705 12.7191 
-61.6173 88.7609 -91.3257 -81.498 -16.3914 -174.557 0.103456 1.85784 10.5485 -17.2598 15.7225 167.097 43.5 -4.2e-05 1e-05 -36.1503 -8.09184 1.09161 42.3722 1.9e-05 0 71.6442 6.86761 3.56568 17.3 0 3e-06 21.4546 -1e-06 0.003093 0.103456 1.85782 -10.5485 8.336 -22.2356 175.438 43.5 -2.7e-05 4e-06 -29.3497 14.4262 2.13474 42.3723 1.42109e-14 1e-05 92.4609 6.15769 -10.2473 17.3 -6e-06 1.7e-05 21.4546 -1.9e-05 -0.003116 6.90197 -2.60373 -3e-06 9.68803 4.86852 -0.205161 12.5881 1e-05 8e-06 9.35417 9.77077 -1.2702 12.3432 -1.8e-05 -5e-06 8.94212 9.81197 -1.85032 25.8329 2.3e-05 7e-06 10.3759 20.0519 -22.7859 11.7666 -8e-06 -6e-06 -0.904859 30.4812 7.73567 19.7459 -1.48035 6.0001 -175.532 5.32786 -86.527 11.2841 1.8e-05 -2e-05 -19.7723 -3.36036 67.2453 33 -1.3e-05 1.9e-05 -30.7864 8.02694 -5.01494 25.2 3.2e-05 1.1e-05 -15.6082 24.892 8.69114 19.7461 -1.48036 -6.00008 -175.725 4.54238 63.4259 11.2841 0 -1e-06 -13.501 -4.52995 -36.6271 33.0001 1.6e-05 -1e-06 -42.5101 4.01122 14.821 25.1998 0.000123 0.000432 6.56275 -16.8358 11.0953 
-64.1424 89.5646 -93.3081 -82.4055 -15.4388 -174.792 0.103456 1.85784 10.5485 -20.5837 12.5142 170.55 43.5 -4.2e-05 1e-05 -46.07 -7.84095 2.91468 42.3722 1.9e-05 1.42109e-14 72.0487 5.13058 7.10751 17.3 3.55271e-15 3e-06 21.4546 -1e-06 0.003093 0.103456 1.85782 -10.5485 6.93199 -21.2173 174.262 43.5 -2.7e-05 4e-06 -26.238 14.1301 1.59372 42.3723 1.42109e-14 1e-05 90.6305 5.94076 -10.8554 17.3 -6e-06 1.7e-05 21.4546 -1.9e-05 -0.003116 6.90197 -2.60373 -3e-06 9.74446 4.89463 -0.390593 12.5881 1e-05 8e-06 9.48456 9.7892 -1.6511 12.3432 -1.8e-05 -5e-06 9.07299 9.80876 -2.23167 25.8329 2.3e-05 7e-06 9.73885 19.8186 -22.4598 11.7666 -8e-06 -6e-06 -1.2342 30.1456 7.06228 19.7459 -1.48035 6.0001 -175.955 4.93066 -86.6456 11.2841 1.8e-05 -2e-05 -17.0117 -4.98624 66.7385 33 -1.3e-05 1.9e-05 -29.8912 7.77608 -6.01388 25.2 3.2e-05 1.1e-05 -14.3473 24.755 8.53527 19.7461 -1.48036 -6.00008 -174.262 3.43434 62.2622 11.2841 0 -1e-06 -12.2889 -5.67367 -37.7915 33.0001 1.6e-05 -1e-06 -40.9965 5.40023 14.2663 25.1998 0.000123 0.000432 7.65284 -15.7711 9.90565 
-66.5163 89.9956 -95.2978 -83.4073 -14.4346 -175.042 0.103456 1.85784 10.5485 -22.4742 8.91575 174.117 43.5 -4.2e-05 1e-05 -54.6099 -7.62755 4.23225 42.3722 1.9e-05 0 71.5652 4.01998 9.37198 17.3 -1.06581e-14 3e-06 21.4546 -1e-06 0.003093 0.103456 1.85782 -10.5485 5.98438 -19.3648 173.3 43.5 -2.7e-05 4e-06 -22.7224 13.8513 1.03052 42.3723 0 1e-05 89.3893 6.59117 -11.2394 17.3 -6e-06 1.7e-05 21.4546 -1.9e-05 -0.003116 6.90197 -2.60373 -3e-06 9.71473 4.82078 -0.598021 12.5881 1e-05 8e-06 9.44131 9.60387 -2.05009 12.3432 -1.8e-05 -5e-06 9.0311 9.59845 -2.61866 25.8329 2.3e-05 7e-06 9.34321 19.777 -22.2834 11.7666 -8e-06 -6e-06 -1.44819 30.237 6.49481 19.7459 -1.48035 6.0001 -176.285 4.48915 -86.6148 11.2841 1.8e-05 -2e-05 -14.5131 -6.20717 66.2377 33 -1.3e-05 1.9e-05 -29.0665 7.9871 -7.2131 25.2 3.2e-05 1.1e-05 -14.0169 24.7763 8.20542 19.7461 -1.48036 -6.00008 -173.122 2.84426 61.2296 11.2841 -1.42109e-14 -1e-06 -12.3509 -8.13339 -38.7111 33.0001 1.6e-05 -1e-06 -40.1918 5.48207 13.8263 25.1998 0.000123 0.000432 7.94279 -15.8756 9.74636 
-68.7538 90.0178 -97.2664 -84.417 -13.4474 -175.306 0.103456 1.85784 10.5485 -22.6406 5.46196 178.327 43.5 -4.2e-05 1e-05 -60.8171 -7.62358 4.34894 42.3722 1.9e-05 0 71.3305 2.90378 11.7404 17.3 -3.55271e-15 3e-06 21.4546 -1e-06 0.003093 0.103456 1.85782 -10.5485 5.01927 -17.5623 172.23 43.5 -2.7e-05 4e-06 -19.6334 13.5657 0.503187 42.3723 0 1e-05 88.7894 7.41932 -11.3247 17.3 -6e-06 1.7e-05 21.4546 -1.9e-05 -0.003116 6.90197 -2.60373 -3e-06 9.60564 4.71279 -0.786753 12.5881 1e-05 8e-06 9.23544 9.3547 -2.39894 12.3432 -1.8e-05 -5e-06 8.82679 9.32499 -2.95175 25.8329 2.3e-05 7e-06 9.0918 19.8852 -22.1651 11.7666 -8e-06 -6e-06 -1.09843 30.6866 6.03032 19.7459 -1.48035 6.0001 -176.655 3.97501 -86.4611 11.2841 1.8e-05 -2e-05 -12.8345 -6.88939 65.4824 33 -1.3e-05 1.9e-05 -28.4454 8.20515 -8.18119 25.2 3.2e-05 1.1e-05 -14.1442 25.1666 7.60519 19.7461 -1.48036 -6.00008 -172.164 2.73759 60.1885 11.2841 -1.42109e-14 -1e-06 -12.9574 -11.2627 -39.3804 33.0001 1.6e-05 -1e-06 -39.7637 4.82992 13.5176 25.1998 0.000123 0.000432 7.77469 -16.7189 10.3744 
-70.9292 89.7697 -99.2348 -85.4975 -12.7434 -175.562 0.103456 1.85784 10.5485 -21.337 2.55869 -176.8 43.5 -4.2e-05 1e-05 -63.9949 -7.79242 3.25152 42.3722 1.9e-05 0 70.4113 2.53632 15.3991 17.3 0 3e-06 21.4546 -1e-06 0.003093 0.103456 1.85782 -10.5485 4.14136 -16.3505 170.994 43.5 -2.7e-05 4e-06 -16.4288 13.1305 0.117117 42.3723 0 1e-05 88.338 8.64777 -10.9225 17.3 -6e-06 1.7e-05 21.4546 -1.9e-05 -0.003116 6.90197 -2.60373 -3e-06 9.42285 4.56826 -0.942858 12.5881 1e-05 8e-06 8.87713 9.038 -2.67021 12.3432 -1.8e-05 -5e-06 8.47042 8.98672 -3.20336 25.8329 2.3e-05 7e-06 8.92952 19.9469 -22.0543 11.7666 -8e-06 -6e-06 -0.31656 31.1968 5.60413 19.7459 -1.48035 6.0001 -177.028 3.53064 -86.2622 11.2841 1.8e-05 -2e-05 -12.094 -7.08158 64.4377 33 -1.3e-05 1.9e-05 -28.1778 8.29994 -8.73043 25.2 3.2e-05 1.1e-05 -14.2154 25.8684 6.87229 19.7461 -1.48036 -6.00008 -171.262 2.95038 59.1578 11.2841 -1.42109e-14 -1e-06 -13.1097 -13.6662 -39.9787 33.0001 1.6e-05 -1e-06 -39.252 4.02995 13.4568 25.1998 0.000123 0.000432 7.5819 -17.341 10.7494 
-73.0427 89.3239 -101.322 -86.5843 -12.6126 -175.773 0.103456 1.85784 10.5485 -18.8542 0.233385 -171.881 43.5 -4.2e-05 1e-05 -64.0387 -8.26324 1.54945 42.3722 1.9e-05 2.84217e-14 69.0249 1.49557 19.7653 17.3 -1.42109e-14 3e-06 21.4546 -1e-06 0.003093 0.103456 1.85782 -10.5485 3.64784 -15.7281 169.619 43.5 -2.7e-05 4e-06 -12.6696 12.6571 -0.121234 42.3723 1.42109e-14 1e-05 87.6501 10.3482 -10.4063 17.3 -6e-06 1.7e-05 21.4546 -1.9e-05 -0.003116 6.90197 -2.60373 -3e-06 9.21023 4.34064 -1.03708 12.5881 1e-05 8e-06 8.45165 8.56861 -2.80165 12.3432 -1.8e-05 -5e-06 8.0478 8.50359 -3.30615 25.8329 2.3e-05 7e-06 8.68044 19.8151 -21.8182 11.7666 -8e-06 -6e-06 0.872426 31.5381 4.94202 19.7459 -1.48035 6.0001 -177.342 3.12469 -86.1299 11.2841 1.8e-05 -2e-05 -11.7297 -7.10354 63.513 33 -1.3e-05 1.9e-05 -28.481 8.52389 -8.99103 25.2 3.2e-05 1.1e-05 -14.4625 26.4471 6.36728 19.7461 -1.48036 -6.00008 -170.341 3.24318 58.1101 11.2841 0 -1e-06 -12.5479 -15.3865 -40.2919 33.0001 1.6e-05 -1e-06 -38.7693 3.3271 13.6325 25.1998 0.000123 0.000432 7.33017 -17.674 10.9135 
-75.1323 88.656 -103.689 -87.7221 -13.2745 -175.935 0.103456 1.85784 10.5485 -15.5978 -1.73811 -167.647 43.5 -4.2e-05 1e-05 -61.2053 -9.26267 -0.0710835 42.3722 1.9e-05 0 67.6847 -1.58608 23.5846 17.3 0 3e-06 21.4546 -1e-06 0.003093 0.103456 1.85782 -10.5485 3.34738 -14.8031 168.013 43.5 -2.7e-05 4e-06 -9.10813 12.4569 -0.278358 42.3723 1.42109e-14 1e-05 87.0951 12.9165 -10.3957 17.3 -6e-06 1.7e-05 21.4546 -1.9e-05 -0.003116 6.90197 -2.60373 -3e-06 8.99883 4.03338 -1.08446 12.5881 1e-05 8e-06 8.02344 7.94927 -2.82739 12.3432 -1.8e-05 -5e-06 7.62366 7.87733 -3.29435 25.8329 2.3e-05 7e-06 8.37686 19.4598 -21.5049 11.7666 -8e-06 -6e-06 1.69224 31.4911 4.27473 19.7459 -1.48035 6.0001 -177.627 2.77086 -86.2351 11.2841 1.8e-05 -2e-05 -11.1568 -7.40973 62.8725 33 -1.3e-05 1.9e-05 -29.3174 8.55431 -8.92352 25.2 3.2e-05 1.1e-05 -14.5962 26.556 6.29167 19.7461 -1.48036 -6.00008 -169.41 3.4295 57.1832 11.2841 0 -1e-06 -10.8289 -15.6616 -40.421 33.0001 1.6e-05 -1e-06 -38.1969 3.30332 13.9566 25.1998 0.000123 0.000432 7.3883 -17.1711 10.3546 
-77.1938 87.8489 -106.466 -88.7199 -14.505 -176.053 0.103456 1.85784 10.5485 -11.6198 -3.34157 -164.38 43.5 -4.2e-05 1e-05 -55.911 -10.6995 -1.39302 42.3722 1.9e-05 0 66.2524 -5.07353 26.1057 17.3 0 3e-06 21.4546 -1e-06 0.003093 0.103456 1.85782 -10.5485 2.54623 -13.1966 165.955 43.5 -2.7e-05 4e-06 -7.55453 12.7694 -0.390172 42.3723 0 1e-05 86.9369 15.5689 -11.1899 17.3 -6e-06 1.7e-05 21.4546 -1.9e-05 -0.003116 6.90197 -2.60373 -3e-06 8.83657 3.71693 -1.06752 12.5881 1e-05 8e-06 7.69006 7.32205 -2.72839 12.3432 -1.8e-05 -5e-06 7.29478 7.2524 -3.15756 25.8329 2.3e-05 7e-06 8.03057 18.9249 -21.1532 11.7666 -8e-06 -6e-06 2.06405 31.047 3.70232 19.7459 -1.48035 6.0001 -177.997 2.44355 -86.4276 11.2841 1.8e-05 -2e-05 -10.7637 -7.81265 62.4634 33 -1.3e-05 1.9e-05 -30.4499 8.24925 -8.4855 25.2 3.2e-05 1.1e-05 -14.7426 26.2512 6.55129 19.7461 -1.48036 -6.00008 -168.586 3.53514 56.3476 11.2841 1.42109e-14 -1e-06 -8.47037 -15.1362 -40.2218 33.0001 1.6e-05 -1e-06 -37.5461 3.95369 14.3249 25.1998 0.000123 0.000432 8.12448 -16.2771 9.6144 
-79.3134 87.0163 -109.772 -89.592 -15.8611 -176.14 0.103456 1.85784 10.5485 -7.12298 -4.98058 -162.36 43.5 -4.2e-05 1e-05 -49.1482 -11.3872 -2.60348 42.3722 1.9e-05 0 62.7726 -8.08921 26.2574 17.3 1.42109e-14 3e-06 21.4546 -1e-06 0.003093 0.103456 1.85782 -10.5485 0.951784 -11.2056 163.373 43.5 -2.7e-05 4e-06 -8.32445 13.5296 -0.426819 42.3723 0 1e-05 87.0287 17.3296 -12.5114 17.3 -6e-06 1.7e-05 21.4546 -1.9e-05 -0.003116 6.90197 -2.60373 -3e-06 8.68668 3.49742 -0.945799 12.5881 1e-05 8e-06 7.37798 6.9055 -2.43907 12.3432 -1.8e-05 -5e-06 6.98578 6.84981 -2.84364 25.8329 2.3e-05 7e-06 7.49157 18.0528 -20.603 11.7666 -8e-06 -6e-06 3.23433 30.1453 2.76595 19.7459 -1.48035 6.0001 -178.469 2.16616 -86.279 11.2841 1.8e-05 -2e-05 -11.2191 -7.89603 62.1398 33 -1.3e-05 1.9e-05 -31.6902 8.01049 -7.82762 25.2 3.2e-05 1.1e-05 -15.022 26.4784 6.46581 19.7461 -1.48036 -6.00008 -167.959 3.79159 55.7115 11.2841 0 -1e-06 -6.04818 -14.6102 -39.6092 33.0001 1.6e-05 -1e-06 -36.7685 4.99011 14.6142 25.1998 0.000123 0.000432 9.01875 -15.2799 8.8661 
